# xmcd
#
# Track frame offsets:
# 150
# 24269
# 42956
# 53824
# 75979
# 95366
# 123795
# 144929
# 160581
# 183843
# 200925
# 217525
# 236849
# 251249
# 267544
# 285660
# 298770
# 311927
#
# Disc length: 4389 seconds
#
# Revision: 1
# Processed by: cddbd v1.5.2PL0 Copyright (c) Steve Scherf et al.
# Submitted via: Axialis_AX_CDPlayer 2.6
#
DISCID=fe112312
DTITLE=Various Artist - Keeping Living Music Alive Vol. 2
DYEAR=2007
DGENRE=Blues
TTITLE0=Boo Boo Davis - Who stole the Booty
TTITLE1=Doug MacLead - The Leavin' Road
TTITLE2=Turnip Greens - Sixsixtysix
TTITLE3=Billy Jones - Never let you go
TTITLE4=Big George Jackson - If I could change
TTITLE5=Mike Anderson - Fooling yourself
TTITLE6=Boo Boo Davis - Drew Mississippi
TTITLE7=Erskine Oglesby - Jack and Coke
TTITLE8=Billy Jones - Crystal
TTITLE9=Roscoe Chenier - Bad Luck
TTITLE10=Blyther Smith - Little Voice
TTITLE11=Ernie Payne - Mother's Uncle
TTITLE12=Teresa James - My Heart Took A Beating
TTITLE13=Harrison Kennedy - 40 Acres And A Mule
TTITLE14=Sunset Travelers - Walk A Mile In My Shoes
TTITLE15=Percy Strother - Cause Of It All
TTITLE16=Doug MacLeod - Ain't No Cure
TTITLE17=Turnip Greens - Kissed Her On The Cheek
EXTD=
EXTT0=
EXTT1=
EXTT2=
EXTT3=
EXTT4=
EXTT5=
EXTT6=
EXTT7=
EXTT8=
EXTT9=
EXTT10=
EXTT11=
EXTT12=
EXTT13=
EXTT14=
EXTT15=
EXTT16=
EXTT17=
PLAYORDER=
